<svg xmlns="http://www.w3.org/2000/svg" xmlns:oryx="http://oryx-editor.org" id="_5F15F34E-A338-465C-87AB-743C5314E868" width="718" height="264.671875" xmlns:xlink="http://www.w3.org/1999/xlink" xmlns:svg="http://www.w3.org/2000/svg"><defs><marker id="_F3D391EB-F227-4222-9FD0-D02B51F62E1Estart" refX="1" refY="5" markerUnits="userSpaceOnUse" markerWidth="17" markerHeight="11" orient="auto" fill="#000000" stroke="#000000"> 	  		<path id="_F3D391EB-F227-4222-9FD0-D02B51F62E1Econditional" d="M 0 5 L 8 0 L 16 5 L 8 10 L 0 5" fill="white" stroke="#000000" stroke-width="1" display="none"/> 			<path id="_F3D391EB-F227-4222-9FD0-D02B51F62E1Edefault" d="M 5 0 L 11 10" fill="white" stroke="#000000" stroke-width="1" display="none"/> 	  	</marker><marker id="_F3D391EB-F227-4222-9FD0-D02B51F62E1Eend" refX="15" refY="6" markerUnits="userSpaceOnUse" markerWidth="15" markerHeight="12" orient="auto" fill="#000000" stroke="#000000"> 	  		<path id="_F3D391EB-F227-4222-9FD0-D02B51F62E1Eframe2" d="M 0 1 L 15 6 L 0 11z" fill="#000000" stroke="#000000" stroke-linejoin="round" stroke-width="2"/> 	  	</marker><marker id="_DF785D9A-64A8-4A22-8941-BC2BF9D9E093start" refX="1" refY="5" markerUnits="userSpaceOnUse" markerWidth="17" markerHeight="11" orient="auto" fill="#000000" stroke="#000000"> 	  		<path id="_DF785D9A-64A8-4A22-8941-BC2BF9D9E093conditional" d="M 0 5 L 8 0 L 16 5 L 8 10 L 0 5" fill="white" stroke="#000000" stroke-width="1" display="none"/> 			<path id="_DF785D9A-64A8-4A22-8941-BC2BF9D9E093default" d="M 5 0 L 11 10" fill="white" stroke="#000000" stroke-width="1" display="none"/> 	  	</marker><marker id="_DF785D9A-64A8-4A22-8941-BC2BF9D9E093end" refX="15" refY="6" markerUnits="userSpaceOnUse" markerWidth="15" markerHeight="12" orient="auto" fill="#000000" stroke="#000000"> 	  		<path id="_DF785D9A-64A8-4A22-8941-BC2BF9D9E093frame2" d="M 0 1 L 15 6 L 0 11z" fill="#000000" stroke="#000000" stroke-linejoin="round" stroke-width="2"/> 	  	</marker><marker id="_D560E957-2741-438B-8AB1-7D1F1504D91Astart" refX="1" refY="5" markerUnits="userSpaceOnUse" markerWidth="17" markerHeight="11" orient="auto" fill="#000000" stroke="#000000"> 	  		<path id="_D560E957-2741-438B-8AB1-7D1F1504D91Aconditional" d="M 0 5 L 8 0 L 16 5 L 8 10 L 0 5" fill="white" stroke="#000000" stroke-width="1" display="none"/> 			<path id="_D560E957-2741-438B-8AB1-7D1F1504D91Adefault" d="M 5 0 L 11 10" fill="white" stroke="#000000" stroke-width="1" display="none"/> 	  	</marker><marker id="_D560E957-2741-438B-8AB1-7D1F1504D91Aend" refX="15" refY="6" markerUnits="userSpaceOnUse" markerWidth="15" markerHeight="12" orient="auto" fill="#000000" stroke="#000000"> 	  		<path id="_D560E957-2741-438B-8AB1-7D1F1504D91Aframe2" d="M 0 1 L 15 6 L 0 11z" fill="#000000" stroke="#000000" stroke-linejoin="round" stroke-width="2"/> 	  	</marker><marker id="_9FFD0844-50F5-4CF5-92B1-E27DD62298F2start" refX="1" refY="5" markerUnits="userSpaceOnUse" markerWidth="17" markerHeight="11" orient="auto" fill="#000000" stroke="#000000"> 	  		<path id="_9FFD0844-50F5-4CF5-92B1-E27DD62298F2conditional" d="M 0 5 L 8 0 L 16 5 L 8 10 L 0 5" fill="white" stroke="#000000" stroke-width="1" display="none"/> 			<path id="_9FFD0844-50F5-4CF5-92B1-E27DD62298F2default" d="M 5 0 L 11 10" fill="white" stroke="#000000" stroke-width="1" display="none"/> 	  	</marker><marker id="_9FFD0844-50F5-4CF5-92B1-E27DD62298F2end" refX="15" refY="6" markerUnits="userSpaceOnUse" markerWidth="15" markerHeight="12" orient="auto" fill="#000000" stroke="#000000"> 	  		<path id="_9FFD0844-50F5-4CF5-92B1-E27DD62298F2frame2" d="M 0 1 L 15 6 L 0 11z" fill="#000000" stroke="#000000" stroke-linejoin="round" stroke-width="2"/> 	  	</marker></defs><g stroke="none" font-family="Verdana, sans-serif" font-size-adjust="none" font-style="normal" font-variant="normal" font-weight="normal" line-heigth="normal" font-size="12"><g class="stencils" transform="translate(15, 15.671875)"><g class="me"/><g class="children"><g id="_BEEDAADB-84CF-4581-A7FF-6134E2EB77A2" bpmn2nodeid="processStartEvent"><g class="stencils" transform="translate(120, 165)"><g class="me"><g pointer-events="fill" id="_BEEDAADB-84CF-4581-A7FF-6134E2EB77A2">        <defs id="_BEEDAADB-84CF-4581-A7FF-6134E2EB77A2__BEEDAADB-84CF-4581-A7FF-6134E2EB77A2_5"> 		<radialGradient id="_BEEDAADB-84CF-4581-A7FF-6134E2EB77A2background" cx="10%" cy="10%" r="100%" fx="10%" fy="10%"> 			<stop offset="0%" stop-color="#ffffff" stop-opacity="1" id="_BEEDAADB-84CF-4581-A7FF-6134E2EB77A2__BEEDAADB-84CF-4581-A7FF-6134E2EB77A2_6"/> 			<stop id="_BEEDAADB-84CF-4581-A7FF-6134E2EB77A2fill_el" offset="100%" stop-color="#9acd32" stop-opacity="1"/> 		</radialGradient> 	</defs> 	     <circle id="_BEEDAADB-84CF-4581-A7FF-6134E2EB77A2bg_frame" cx="15" cy="15" r="15" stroke="#000000" fill="url(#_BEEDAADB-84CF-4581-A7FF-6134E2EB77A2background) white" stroke-width="1" style="stroke-dasharray: 5.5, 3"/>      <circle id="_BEEDAADB-84CF-4581-A7FF-6134E2EB77A2frame" cx="15" cy="15" r="15" stroke="#000000" fill="none" stroke-width="1" display="inherit"/>  	<text font-size="11" id="_BEEDAADB-84CF-4581-A7FF-6134E2EB77A2text_name" x="15" y="32" oryx:align="top center" stroke="black" stroke-width="0pt" letter-spacing="-0.01px" fill="#000000" text-anchor="middle" transform="rotate(0 15 32)" visibility="inherit" oryx:fontSize="11"/>   </g></g><g class="children" style="overflow:hidden"/><g class="edge"/></g><g class="controls"><g class="dockers"/><g class="magnets" transform="translate(120, 165)"><g pointer-events="all" display="none" transform="translate(7, 7)"><circle cx="8" cy="8" r="4" stroke="none" fill="red" fill-opacity="0.3"/></g></g></g></g><g id="_CD6C571F-CE5A-43C8-9FF0-B8B8C9B17C78" bpmn2nodeid="_B2673A9D-009B-47C3-94D4-46CA7791A3AE"><g class="stencils" transform="translate(195, 135)"><g class="me"><g pointer-events="fill" oryx:minimumSize="50 40" id="_CD6C571F-CE5A-43C8-9FF0-B8B8C9B17C78">   	<defs id="_CD6C571F-CE5A-43C8-9FF0-B8B8C9B17C78__CD6C571F-CE5A-43C8-9FF0-B8B8C9B17C78_17"> 		<radialGradient id="_CD6C571F-CE5A-43C8-9FF0-B8B8C9B17C78background" cx="10%" cy="10%" r="100%" fx="10%" fy="10%"> 			<stop offset="0%" stop-color="#ffffff" stop-opacity="1" id="_CD6C571F-CE5A-43C8-9FF0-B8B8C9B17C78__CD6C571F-CE5A-43C8-9FF0-B8B8C9B17C78_18"/> 			<stop id="_CD6C571F-CE5A-43C8-9FF0-B8B8C9B17C78fill_el" offset="100%" stop-color="#fafad2" stop-opacity="1"/> 		</radialGradient> 		<radialGradient id="_CD6C571F-CE5A-43C8-9FF0-B8B8C9B17C78borderbackground" cx="10%" cy="10%" r="100%" fx="10%" fy="10%"> 			<stop offset="0%" stop-color="#ffffff" stop-opacity="1" id="_CD6C571F-CE5A-43C8-9FF0-B8B8C9B17C78__CD6C571F-CE5A-43C8-9FF0-B8B8C9B17C78_19"/> 			<stop id="_CD6C571F-CE5A-43C8-9FF0-B8B8C9B17C78fill_border" offset="100%" stop-color="#000000" stop-opacity="1" stroke="#000000"/> 		</radialGradient> 	</defs> 	 	<rect id="_CD6C571F-CE5A-43C8-9FF0-B8B8C9B17C78text_frame" oryx:anchors="bottom top right left" x="1" y="1" width="94" height="79" rx="10" ry="10" stroke="none" stroke-width="0" fill="none"/> 	<rect id="_CD6C571F-CE5A-43C8-9FF0-B8B8C9B17C78bg_frame" oryx:resize="vertical horizontal" x="0" y="0" width="100" height="80" rx="10" ry="10" stroke="#000000" stroke-width="1" fill="url(#_CD6C571F-CE5A-43C8-9FF0-B8B8C9B17C78background) #ffffcc"/> 		<text font-size="12" id="_CD6C571F-CE5A-43C8-9FF0-B8B8C9B17C78text_name" x="50" y="40" oryx:align="middle center" oryx:fittoelem="text_frame" stroke="black" text-anchor="middle" stroke-width="0pt" letter-spacing="-0.01px" fill="#000000" transform="rotate(0 50 40)" visibility="inherit" oryx:fontSize="12"><tspan x="50" y="40" dy="-7" id="ext-gen990">Ingresar </tspan><tspan x="50" y="40" dy="5" id="ext-gen953">Numeros </tspan><tspan x="50" y="40" dy="17" id="ext-gen711">Sumar</tspan></text>     <g id="_CD6C571F-CE5A-43C8-9FF0-B8B8C9B17C78manualTask" transform="scale(0.7,0.7) translate(8,8)" display="none">     	<path oryx:anchors="top left" id="_CD6C571F-CE5A-43C8-9FF0-B8B8C9B17C78frame" style="opacity:1;fill:none;fill-opacity:1;stroke-width:1" d="M0.5,3.751l4.083-3.25c0,0,11.166,0.083,12.083,0.083s-2.417,2.917-1.5,2.917     s11.667,0,12.584,0c1.166,1.708-0.168,3.167-0.834,3.667s0.875,1.917-1,4.417c-0.75,0.25,0.75,1.875-1.333,3.333     c-1.167,0.583,0.583,1.542-1.25,2.833c-1.167,0-20.833,0.083-20.833,0.083l-2-1.333V3.751z" stroke="#000000"/> 		<path id="_CD6C571F-CE5A-43C8-9FF0-B8B8C9B17C78frame2" oryx:anchors="top left" style="opacity:1;fill:none;stroke-width:2" d="M 13.5 7 L 27 7" stroke="#000000"/> 		<path id="_CD6C571F-CE5A-43C8-9FF0-B8B8C9B17C78frame3" oryx:anchors="top left" style="opacity:1;fill:none;stroke-width:2" d="M 13.5 11 L 26 11" stroke="#000000"/> 		<path id="_CD6C571F-CE5A-43C8-9FF0-B8B8C9B17C78frame4" oryx:anchors="top left" style="opacity:1;fill:none;stroke-width:1.5" d="M 14 14.5 L 25 14.5" stroke="#000000"/> 		<path id="_CD6C571F-CE5A-43C8-9FF0-B8B8C9B17C78frame5" oryx:anchors="top left" style="opacity:1;fill:none;stroke-width:1.5" d="M 8.2 3.1 L 15 3.1" stroke="#000000"/> 	</g> 	 	<g id="_CD6C571F-CE5A-43C8-9FF0-B8B8C9B17C78businessRuleTask" transform="scale(0.7,0.7) translate(8,8)" display="none"> 		<rect id="_CD6C571F-CE5A-43C8-9FF0-B8B8C9B17C78frame6" oryx:anchors="top left" x="0" y="0" width="22" height="4" style="opacity:1;fill:#B3B1B3;fill-opacity:1;" stroke="#000000"/> 		<rect id="_CD6C571F-CE5A-43C8-9FF0-B8B8C9B17C78frame7" oryx:anchors="top left" x="0" y="4" style="opacity:1;fill:none;" width="22" height="12" stroke="#000000"/> 		<path id="_CD6C571F-CE5A-43C8-9FF0-B8B8C9B17C78frame8" oryx:anchors="top left" style="opacity:1;fill:none;" d="M 0 10 L 22 10" stroke="#000000"/> 		<path id="_CD6C571F-CE5A-43C8-9FF0-B8B8C9B17C78frame9" oryx:anchors="top left" style="opacity:1; fill:none;" d="M 7 4 L 7 16" stroke="#000000"/> 	</g> 	 	<g id="_CD6C571F-CE5A-43C8-9FF0-B8B8C9B17C78scriptTask" transform="scale(0.7,0.7) translate(8,8)" display="none"> 		<path oryx:anchors="top left" id="_CD6C571F-CE5A-43C8-9FF0-B8B8C9B17C78frame10" style="opacity:1;fill:none;" stroke="#000000" d="M6.402,0.5h14.5c0,0-5.833,2.833-5.833,5.583s4.417,6,4.417,9.167    s-4.167,5.083-4.167,5.083H0.235c0,0,5-2.667,5-5s-4.583-6.75-4.583-9.25S6.402,0.5,6.402,0.5z"/> 		<path oryx:anchors="top left" id="_CD6C571F-CE5A-43C8-9FF0-B8B8C9B17C78frame11" style="opacity:1;fill:none;stroke-width:1.5" d="M 3.5 4.5 L 13.5 4.5" stroke="#000000"/> 		<path oryx:anchors="top left" id="_CD6C571F-CE5A-43C8-9FF0-B8B8C9B17C78frame12" style="opacity:1;fill:none;stroke-width:1.5" d="M 3.8 8.5 L 13.8 8.5" stroke="#000000"/> 		<path oryx:anchors="top left" id="_CD6C571F-CE5A-43C8-9FF0-B8B8C9B17C78frame13" style="opacity:1;fill:none;stroke-width:1.5" d="M 6.3 12.5 L 16.3 12.5" stroke="#000000"/> 		<path oryx:anchors="top left" id="_CD6C571F-CE5A-43C8-9FF0-B8B8C9B17C78frame14" style="opacity:1;fill:none;stroke-width:1.5" d="M 6.5 16.5 L 16.5 16.5" stroke="#000000"/> 	</g> 	 	<g id="_CD6C571F-CE5A-43C8-9FF0-B8B8C9B17C78userTask" transform="scale(0.7,0.7) translate(8,8)" display="inherit"> 		<path id="_CD6C571F-CE5A-43C8-9FF0-B8B8C9B17C78frame15" oryx:anchors="top left" style="opacity:1;fill:#F4F6F7" stroke="#000000" d="M0.585,24.167h24.083v-7.833c0,0-2.333-3.917-7.083-5.167h-9.25    c-4.417,1.333-7.833,5.75-7.833,5.75L0.585,24.167z"/> 		<path id="_CD6C571F-CE5A-43C8-9FF0-B8B8C9B17C78frame16" oryx:anchors="top left" style="opacity:1;fill:none" d="M 6 20 L 6 24" stroke="#000000"/> 		<path id="_CD6C571F-CE5A-43C8-9FF0-B8B8C9B17C78frame17" oryx:anchors="top left" style="opacity:1;fill:none" d="M 20 20 L 20 24" stroke="#000000"/> 		<circle id="_CD6C571F-CE5A-43C8-9FF0-B8B8C9B17C78frame18" oryx:anchors="top left" fill="black" cx="13.002" cy="5.916" r="5.417" stroke="#000000"/> 		<path id="_CD6C571F-CE5A-43C8-9FF0-B8B8C9B17C78frame19" oryx:anchors="top left" style="opacity:1;fill:#F0EFF0;" stroke="#000000" d="M8.043,7.083c0,0,2.814-2.426,5.376-1.807s4.624-0.693,4.624-0.693    c0.25,1.688,0.042,3.75-1.458,5.584c0,0,1.083,0.75,1.083,1.5s0.125,1.875-1,3s-5.5,1.25-6.75,0S8.668,12.834,8.668,12    s0.583-1.25,1.25-1.917C8.835,9.5,7.419,7.708,8.043,7.083z"/> 	</g> 	 	<g id="_CD6C571F-CE5A-43C8-9FF0-B8B8C9B17C78serviceTask" transform="scale(0.7,0.7) translate(8,8)" display="none"> 		<polygon oryx:anchors="top left" id="_CD6C571F-CE5A-43C8-9FF0-B8B8C9B17C78frame20" style="opacity:1;fill:#ffffff" stroke="#000000" points="15.392,5.064 17.954,2.502 20.347,4.895 17.786,7.455     18.729,9.732 22.353,9.732 22.353,13.115 18.731,13.115 17.788,15.392 20.351,17.955 17.958,20.347 15.397,17.786 13.12,18.729     13.12,22.353 9.737,22.353 9.737,18.731 7.46,17.788 4.897,20.35 2.506,17.958 5.066,15.397 4.124,13.12 0.5,13.12 0.5,9.737     4.121,9.737 5.065,7.461 2.503,4.898 4.895,2.506 7.455,5.066 9.732,4.125 9.732,0.5 13.116,0.5 13.116,4.121 "/> 		<circle oryx:anchors="top left" id="_CD6C571F-CE5A-43C8-9FF0-B8B8C9B17C78frame21" style="opacity:1;fill:none" stroke="#000000" cx="11.427" cy="11.426" r="3.714"/> 		<polygon oryx:anchors="top left" id="_CD6C571F-CE5A-43C8-9FF0-B8B8C9B17C78frame22" style="opacity:1;fill:#ffffff" stroke="#000000" points="21.392,11.064 23.954,8.502 26.347,10.895 23.786,13.455     24.729,15.732 28.353,15.732 28.353,19.115 24.731,19.115 23.788,21.392 26.351,23.955 23.958,26.347 21.397,23.786 19.12,24.729     19.12,28.353 15.737,28.353 15.737,24.731 13.46,23.788 10.897,26.35 8.506,23.958 11.066,21.397 10.124,19.12 6.5,19.12     6.5,15.737 10.121,15.737 11.065,13.461 8.503,10.898 10.895,8.506 13.455,11.066 15.732,10.125 15.732,6.5 19.116,6.5     19.116,10.121 "/> 		<circle oryx:anchors="top left" id="_CD6C571F-CE5A-43C8-9FF0-B8B8C9B17C78frame23" style="opacity:1;fill:none;" stroke="#000000" cx="17.427" cy="17.426" r="3.714"/> 	</g> 	 	<g id="_CD6C571F-CE5A-43C8-9FF0-B8B8C9B17C78sendTask" display="none"> 		<path id="_CD6C571F-CE5A-43C8-9FF0-B8B8C9B17C78stframe24" oryx:anchors="left top" stroke="#FFFFFF" fill="black" stroke-width="1" d="M8,11 L8,21 L24,21 L24,11 L16,17z"/> 		<path id="_CD6C571F-CE5A-43C8-9FF0-B8B8C9B17C78stframe25" oryx:anchors="left top" stroke="#FFFFFF" fill="black" stroke-width="1" d="M7,10 L16,17 L25 10z"/> 	</g> 	 	<g id="_CD6C571F-CE5A-43C8-9FF0-B8B8C9B17C78receiveTask" display="none"> 		<path id="_CD6C571F-CE5A-43C8-9FF0-B8B8C9B17C78frame26" oryx:anchors="left top" stroke="#000000" fill="none" stroke-width="1" d="M8,11 L8,21 L24,21 L24,11z M8,11 L16,17 L24,11"/> 	</g> 	 	<g id="_CD6C571F-CE5A-43C8-9FF0-B8B8C9B17C78none" display="inherit"/>  	<g id="_CD6C571F-CE5A-43C8-9FF0-B8B8C9B17C78sequential" display="none">         <path oryx:anchors="bottom" fill="none" stroke="#000000" stroke-width="2" d="M46,76h10M46,72h10 M46,68h10" id="_CD6C571F-CE5A-43C8-9FF0-B8B8C9B17C78__CD6C571F-CE5A-43C8-9FF0-B8B8C9B17C78_20"/>     </g>   </g></g><g class="children" style="overflow:hidden"/><g class="edge"/></g><g class="controls"><g class="dockers"/><g class="magnets" transform="translate(195, 135)"><g pointer-events="all" display="none" transform="translate(-7, 12)"><circle cx="8" cy="8" r="4" stroke="none" fill="red" fill-opacity="0.3"/></g><g pointer-events="all" display="none" transform="translate(-7, 32)"><circle cx="8" cy="8" r="4" stroke="none" fill="red" fill-opacity="0.3"/></g><g pointer-events="all" display="none" transform="translate(-7, 52)"><circle cx="8" cy="8" r="4" stroke="none" fill="red" fill-opacity="0.3"/></g><g pointer-events="all" display="none" transform="translate(17, 71)"><circle cx="8" cy="8" r="4" stroke="none" fill="red" fill-opacity="0.3"/></g><g pointer-events="all" display="none" transform="translate(42, 71)"><circle cx="8" cy="8" r="4" stroke="none" fill="red" fill-opacity="0.3"/></g><g pointer-events="all" display="none" transform="translate(67, 71)"><circle cx="8" cy="8" r="4" stroke="none" fill="red" fill-opacity="0.3"/></g><g pointer-events="all" display="none" transform="translate(91, 12)"><circle cx="8" cy="8" r="4" stroke="none" fill="red" fill-opacity="0.3"/></g><g pointer-events="all" display="none" transform="translate(91, 32)"><circle cx="8" cy="8" r="4" stroke="none" fill="red" fill-opacity="0.3"/></g><g pointer-events="all" display="none" transform="translate(91, 52)"><circle cx="8" cy="8" r="4" stroke="none" fill="red" fill-opacity="0.3"/></g><g pointer-events="all" display="none" transform="translate(17, -7)"><circle cx="8" cy="8" r="4" stroke="none" fill="red" fill-opacity="0.3"/></g><g pointer-events="all" display="none" transform="translate(42, -7)"><circle cx="8" cy="8" r="4" stroke="none" fill="red" fill-opacity="0.3"/></g><g pointer-events="all" display="none" transform="translate(67, -7)"><circle cx="8" cy="8" r="4" stroke="none" fill="red" fill-opacity="0.3"/></g><g pointer-events="all" display="none" transform="translate(42, 32)"><circle cx="8" cy="8" r="4" stroke="none" fill="red" fill-opacity="0.3"/></g></g></g></g><g id="_167D5EB6-76A7-40DC-BAF1-06CD41DE466E" bpmn2nodeid="_036BCF80-8C5B-4A02-AAC2-20E963470A47"><g class="stencils" transform="translate(360, 140)"><g class="me"><g pointer-events="fill" oryx:minimumSize="50 40" id="_167D5EB6-76A7-40DC-BAF1-06CD41DE466E">   	<defs id="_167D5EB6-76A7-40DC-BAF1-06CD41DE466E__167D5EB6-76A7-40DC-BAF1-06CD41DE466E_17"> 		<radialGradient id="_167D5EB6-76A7-40DC-BAF1-06CD41DE466Ebackground" cx="10%" cy="10%" r="100%" fx="10%" fy="10%"> 			<stop offset="0%" stop-color="#ffffff" stop-opacity="1" id="_167D5EB6-76A7-40DC-BAF1-06CD41DE466E__167D5EB6-76A7-40DC-BAF1-06CD41DE466E_18"/> 			<stop id="_167D5EB6-76A7-40DC-BAF1-06CD41DE466Efill_el" offset="100%" stop-color="#fafad2" stop-opacity="1"/> 		</radialGradient> 		<radialGradient id="_167D5EB6-76A7-40DC-BAF1-06CD41DE466Eborderbackground" cx="10%" cy="10%" r="100%" fx="10%" fy="10%"> 			<stop offset="0%" stop-color="#ffffff" stop-opacity="1" id="_167D5EB6-76A7-40DC-BAF1-06CD41DE466E__167D5EB6-76A7-40DC-BAF1-06CD41DE466E_19"/> 			<stop id="_167D5EB6-76A7-40DC-BAF1-06CD41DE466Efill_border" offset="100%" stop-color="#000000" stop-opacity="1" stroke="#000000"/> 		</radialGradient> 	</defs> 	 	<rect id="_167D5EB6-76A7-40DC-BAF1-06CD41DE466Etext_frame" oryx:anchors="bottom top right left" x="1" y="1" width="94" height="79" rx="10" ry="10" stroke="none" stroke-width="0" fill="none"/> 	<rect id="_167D5EB6-76A7-40DC-BAF1-06CD41DE466Ebg_frame" oryx:resize="vertical horizontal" x="0" y="0" width="100" height="80" rx="10" ry="10" stroke="#000000" stroke-width="1" fill="url(#_167D5EB6-76A7-40DC-BAF1-06CD41DE466Ebackground) #ffffcc"/> 		<text font-size="12" id="_167D5EB6-76A7-40DC-BAF1-06CD41DE466Etext_name" x="50" y="40" oryx:align="middle center" oryx:fittoelem="text_frame" stroke="black" text-anchor="middle" stroke-width="0pt" letter-spacing="-0.01px" fill="#000000" transform="rotate(0 50 40)" visibility="inherit" oryx:fontSize="12"><tspan x="50" y="40" dy="5" id="ext-gen660">Realizar Suma</tspan></text>     <g id="_167D5EB6-76A7-40DC-BAF1-06CD41DE466EmanualTask" transform="scale(0.7,0.7) translate(8,8)" display="none">     	<path oryx:anchors="top left" id="_167D5EB6-76A7-40DC-BAF1-06CD41DE466Eframe" style="opacity:1;fill:none;fill-opacity:1;stroke-width:1" d="M0.5,3.751l4.083-3.25c0,0,11.166,0.083,12.083,0.083s-2.417,2.917-1.5,2.917     s11.667,0,12.584,0c1.166,1.708-0.168,3.167-0.834,3.667s0.875,1.917-1,4.417c-0.75,0.25,0.75,1.875-1.333,3.333     c-1.167,0.583,0.583,1.542-1.25,2.833c-1.167,0-20.833,0.083-20.833,0.083l-2-1.333V3.751z" stroke="#000000"/> 		<path id="_167D5EB6-76A7-40DC-BAF1-06CD41DE466Eframe2" oryx:anchors="top left" style="opacity:1;fill:none;stroke-width:2" d="M 13.5 7 L 27 7" stroke="#000000"/> 		<path id="_167D5EB6-76A7-40DC-BAF1-06CD41DE466Eframe3" oryx:anchors="top left" style="opacity:1;fill:none;stroke-width:2" d="M 13.5 11 L 26 11" stroke="#000000"/> 		<path id="_167D5EB6-76A7-40DC-BAF1-06CD41DE466Eframe4" oryx:anchors="top left" style="opacity:1;fill:none;stroke-width:1.5" d="M 14 14.5 L 25 14.5" stroke="#000000"/> 		<path id="_167D5EB6-76A7-40DC-BAF1-06CD41DE466Eframe5" oryx:anchors="top left" style="opacity:1;fill:none;stroke-width:1.5" d="M 8.2 3.1 L 15 3.1" stroke="#000000"/> 	</g> 	 	<g id="_167D5EB6-76A7-40DC-BAF1-06CD41DE466EbusinessRuleTask" transform="scale(0.7,0.7) translate(8,8)" display="none"> 		<rect id="_167D5EB6-76A7-40DC-BAF1-06CD41DE466Eframe6" oryx:anchors="top left" x="0" y="0" width="22" height="4" style="opacity:1;fill:#B3B1B3;fill-opacity:1;" stroke="#000000"/> 		<rect id="_167D5EB6-76A7-40DC-BAF1-06CD41DE466Eframe7" oryx:anchors="top left" x="0" y="4" style="opacity:1;fill:none;" width="22" height="12" stroke="#000000"/> 		<path id="_167D5EB6-76A7-40DC-BAF1-06CD41DE466Eframe8" oryx:anchors="top left" style="opacity:1;fill:none;" d="M 0 10 L 22 10" stroke="#000000"/> 		<path id="_167D5EB6-76A7-40DC-BAF1-06CD41DE466Eframe9" oryx:anchors="top left" style="opacity:1; fill:none;" d="M 7 4 L 7 16" stroke="#000000"/> 	</g> 	 	<g id="_167D5EB6-76A7-40DC-BAF1-06CD41DE466EscriptTask" transform="scale(0.7,0.7) translate(8,8)" display="inherit"> 		<path oryx:anchors="top left" id="_167D5EB6-76A7-40DC-BAF1-06CD41DE466Eframe10" style="opacity:1;fill:none;" stroke="#000000" d="M6.402,0.5h14.5c0,0-5.833,2.833-5.833,5.583s4.417,6,4.417,9.167    s-4.167,5.083-4.167,5.083H0.235c0,0,5-2.667,5-5s-4.583-6.75-4.583-9.25S6.402,0.5,6.402,0.5z"/> 		<path oryx:anchors="top left" id="_167D5EB6-76A7-40DC-BAF1-06CD41DE466Eframe11" style="opacity:1;fill:none;stroke-width:1.5" d="M 3.5 4.5 L 13.5 4.5" stroke="#000000"/> 		<path oryx:anchors="top left" id="_167D5EB6-76A7-40DC-BAF1-06CD41DE466Eframe12" style="opacity:1;fill:none;stroke-width:1.5" d="M 3.8 8.5 L 13.8 8.5" stroke="#000000"/> 		<path oryx:anchors="top left" id="_167D5EB6-76A7-40DC-BAF1-06CD41DE466Eframe13" style="opacity:1;fill:none;stroke-width:1.5" d="M 6.3 12.5 L 16.3 12.5" stroke="#000000"/> 		<path oryx:anchors="top left" id="_167D5EB6-76A7-40DC-BAF1-06CD41DE466Eframe14" style="opacity:1;fill:none;stroke-width:1.5" d="M 6.5 16.5 L 16.5 16.5" stroke="#000000"/> 	</g> 	 	<g id="_167D5EB6-76A7-40DC-BAF1-06CD41DE466EuserTask" transform="scale(0.7,0.7) translate(8,8)" display="none"> 		<path id="_167D5EB6-76A7-40DC-BAF1-06CD41DE466Eframe15" oryx:anchors="top left" style="opacity:1;fill:#F4F6F7" stroke="#000000" d="M0.585,24.167h24.083v-7.833c0,0-2.333-3.917-7.083-5.167h-9.25    c-4.417,1.333-7.833,5.75-7.833,5.75L0.585,24.167z"/> 		<path id="_167D5EB6-76A7-40DC-BAF1-06CD41DE466Eframe16" oryx:anchors="top left" style="opacity:1;fill:none" d="M 6 20 L 6 24" stroke="#000000"/> 		<path id="_167D5EB6-76A7-40DC-BAF1-06CD41DE466Eframe17" oryx:anchors="top left" style="opacity:1;fill:none" d="M 20 20 L 20 24" stroke="#000000"/> 		<circle id="_167D5EB6-76A7-40DC-BAF1-06CD41DE466Eframe18" oryx:anchors="top left" fill="black" cx="13.002" cy="5.916" r="5.417" stroke="#000000"/> 		<path id="_167D5EB6-76A7-40DC-BAF1-06CD41DE466Eframe19" oryx:anchors="top left" style="opacity:1;fill:#F0EFF0;" stroke="#000000" d="M8.043,7.083c0,0,2.814-2.426,5.376-1.807s4.624-0.693,4.624-0.693    c0.25,1.688,0.042,3.75-1.458,5.584c0,0,1.083,0.75,1.083,1.5s0.125,1.875-1,3s-5.5,1.25-6.75,0S8.668,12.834,8.668,12    s0.583-1.25,1.25-1.917C8.835,9.5,7.419,7.708,8.043,7.083z"/> 	</g> 	 	<g id="_167D5EB6-76A7-40DC-BAF1-06CD41DE466EserviceTask" transform="scale(0.7,0.7) translate(8,8)" display="none"> 		<polygon oryx:anchors="top left" id="_167D5EB6-76A7-40DC-BAF1-06CD41DE466Eframe20" style="opacity:1;fill:#ffffff" stroke="#000000" points="15.392,5.064 17.954,2.502 20.347,4.895 17.786,7.455     18.729,9.732 22.353,9.732 22.353,13.115 18.731,13.115 17.788,15.392 20.351,17.955 17.958,20.347 15.397,17.786 13.12,18.729     13.12,22.353 9.737,22.353 9.737,18.731 7.46,17.788 4.897,20.35 2.506,17.958 5.066,15.397 4.124,13.12 0.5,13.12 0.5,9.737     4.121,9.737 5.065,7.461 2.503,4.898 4.895,2.506 7.455,5.066 9.732,4.125 9.732,0.5 13.116,0.5 13.116,4.121 "/> 		<circle oryx:anchors="top left" id="_167D5EB6-76A7-40DC-BAF1-06CD41DE466Eframe21" style="opacity:1;fill:none" stroke="#000000" cx="11.427" cy="11.426" r="3.714"/> 		<polygon oryx:anchors="top left" id="_167D5EB6-76A7-40DC-BAF1-06CD41DE466Eframe22" style="opacity:1;fill:#ffffff" stroke="#000000" points="21.392,11.064 23.954,8.502 26.347,10.895 23.786,13.455     24.729,15.732 28.353,15.732 28.353,19.115 24.731,19.115 23.788,21.392 26.351,23.955 23.958,26.347 21.397,23.786 19.12,24.729     19.12,28.353 15.737,28.353 15.737,24.731 13.46,23.788 10.897,26.35 8.506,23.958 11.066,21.397 10.124,19.12 6.5,19.12     6.5,15.737 10.121,15.737 11.065,13.461 8.503,10.898 10.895,8.506 13.455,11.066 15.732,10.125 15.732,6.5 19.116,6.5     19.116,10.121 "/> 		<circle oryx:anchors="top left" id="_167D5EB6-76A7-40DC-BAF1-06CD41DE466Eframe23" style="opacity:1;fill:none;" stroke="#000000" cx="17.427" cy="17.426" r="3.714"/> 	</g> 	 	<g id="_167D5EB6-76A7-40DC-BAF1-06CD41DE466EsendTask" display="none"> 		<path id="_167D5EB6-76A7-40DC-BAF1-06CD41DE466Estframe24" oryx:anchors="left top" stroke="#FFFFFF" fill="black" stroke-width="1" d="M8,11 L8,21 L24,21 L24,11 L16,17z"/> 		<path id="_167D5EB6-76A7-40DC-BAF1-06CD41DE466Estframe25" oryx:anchors="left top" stroke="#FFFFFF" fill="black" stroke-width="1" d="M7,10 L16,17 L25 10z"/> 	</g> 	 	<g id="_167D5EB6-76A7-40DC-BAF1-06CD41DE466EreceiveTask" display="none"> 		<path id="_167D5EB6-76A7-40DC-BAF1-06CD41DE466Eframe26" oryx:anchors="left top" stroke="#000000" fill="none" stroke-width="1" d="M8,11 L8,21 L24,21 L24,11z M8,11 L16,17 L24,11"/> 	</g> 	 	<g id="_167D5EB6-76A7-40DC-BAF1-06CD41DE466Enone" display="inherit"/>  	<g id="_167D5EB6-76A7-40DC-BAF1-06CD41DE466Esequential" display="none">         <path oryx:anchors="bottom" fill="none" stroke="#000000" stroke-width="2" d="M46,76h10M46,72h10 M46,68h10" id="_167D5EB6-76A7-40DC-BAF1-06CD41DE466E__167D5EB6-76A7-40DC-BAF1-06CD41DE466E_20"/>     </g>   </g></g><g class="children" style="overflow:hidden"/><g class="edge"/></g><g class="controls"><g class="dockers"/><g class="magnets" transform="translate(360, 140)"><g pointer-events="all" display="none" transform="translate(-7, 12)"><circle cx="8" cy="8" r="4" stroke="none" fill="red" fill-opacity="0.3"/></g><g pointer-events="all" display="none" transform="translate(-7, 32)"><circle cx="8" cy="8" r="4" stroke="none" fill="red" fill-opacity="0.3"/></g><g pointer-events="all" display="none" transform="translate(-7, 52)"><circle cx="8" cy="8" r="4" stroke="none" fill="red" fill-opacity="0.3"/></g><g pointer-events="all" display="none" transform="translate(17, 71)"><circle cx="8" cy="8" r="4" stroke="none" fill="red" fill-opacity="0.3"/></g><g pointer-events="all" display="none" transform="translate(42, 71)"><circle cx="8" cy="8" r="4" stroke="none" fill="red" fill-opacity="0.3"/></g><g pointer-events="all" display="none" transform="translate(67, 71)"><circle cx="8" cy="8" r="4" stroke="none" fill="red" fill-opacity="0.3"/></g><g pointer-events="all" display="none" transform="translate(91, 12)"><circle cx="8" cy="8" r="4" stroke="none" fill="red" fill-opacity="0.3"/></g><g pointer-events="all" display="none" transform="translate(91, 32)"><circle cx="8" cy="8" r="4" stroke="none" fill="red" fill-opacity="0.3"/></g><g pointer-events="all" display="none" transform="translate(91, 52)"><circle cx="8" cy="8" r="4" stroke="none" fill="red" fill-opacity="0.3"/></g><g pointer-events="all" display="none" transform="translate(17, -7)"><circle cx="8" cy="8" r="4" stroke="none" fill="red" fill-opacity="0.3"/></g><g pointer-events="all" display="none" transform="translate(42, -7)"><circle cx="8" cy="8" r="4" stroke="none" fill="red" fill-opacity="0.3"/></g><g pointer-events="all" display="none" transform="translate(67, -7)"><circle cx="8" cy="8" r="4" stroke="none" fill="red" fill-opacity="0.3"/></g><g pointer-events="all" display="none" transform="translate(42, 32)"><circle cx="8" cy="8" r="4" stroke="none" fill="red" fill-opacity="0.3"/></g></g></g></g><g id="_48754C14-0DF7-451B-A915-1C9CAED3EFDB" bpmn2nodeid="_29BBF366-0C40-4610-A7D7-50E4DDE5A047"><g class="stencils" transform="translate(505, 140)"><g class="me"><g pointer-events="fill" oryx:minimumSize="50 40" id="_48754C14-0DF7-451B-A915-1C9CAED3EFDB">   	<defs id="_48754C14-0DF7-451B-A915-1C9CAED3EFDB__48754C14-0DF7-451B-A915-1C9CAED3EFDB_17"> 		<radialGradient id="_48754C14-0DF7-451B-A915-1C9CAED3EFDBbackground" cx="10%" cy="10%" r="100%" fx="10%" fy="10%"> 			<stop offset="0%" stop-color="#ffffff" stop-opacity="1" id="_48754C14-0DF7-451B-A915-1C9CAED3EFDB__48754C14-0DF7-451B-A915-1C9CAED3EFDB_18"/> 			<stop id="_48754C14-0DF7-451B-A915-1C9CAED3EFDBfill_el" offset="100%" stop-color="#fafad2" stop-opacity="1"/> 		</radialGradient> 		<radialGradient id="_48754C14-0DF7-451B-A915-1C9CAED3EFDBborderbackground" cx="10%" cy="10%" r="100%" fx="10%" fy="10%"> 			<stop offset="0%" stop-color="#ffffff" stop-opacity="1" id="_48754C14-0DF7-451B-A915-1C9CAED3EFDB__48754C14-0DF7-451B-A915-1C9CAED3EFDB_19"/> 			<stop id="_48754C14-0DF7-451B-A915-1C9CAED3EFDBfill_border" offset="100%" stop-color="#000000" stop-opacity="1" stroke="#000000"/> 		</radialGradient> 	</defs> 	 	<rect id="_48754C14-0DF7-451B-A915-1C9CAED3EFDBtext_frame" oryx:anchors="bottom top right left" x="1" y="1" width="94" height="79" rx="10" ry="10" stroke="none" stroke-width="0" fill="none"/> 	<rect id="_48754C14-0DF7-451B-A915-1C9CAED3EFDBbg_frame" oryx:resize="vertical horizontal" x="0" y="0" width="100" height="80" rx="10" ry="10" stroke="#000000" stroke-width="1" fill="url(#_48754C14-0DF7-451B-A915-1C9CAED3EFDBbackground) #ffffcc"/> 		<text font-size="12" id="_48754C14-0DF7-451B-A915-1C9CAED3EFDBtext_name" x="50" y="40" oryx:align="middle center" oryx:fittoelem="text_frame" stroke="black" text-anchor="middle" stroke-width="0pt" letter-spacing="-0.01px" fill="#000000" transform="rotate(0 50 40)" visibility="inherit" oryx:fontSize="12"><tspan x="50" y="40" dy="5" id="ext-gen658">mostrar Datos</tspan></text>     <g id="_48754C14-0DF7-451B-A915-1C9CAED3EFDBmanualTask" transform="scale(0.7,0.7) translate(8,8)" display="none">     	<path oryx:anchors="top left" id="_48754C14-0DF7-451B-A915-1C9CAED3EFDBframe" style="opacity:1;fill:none;fill-opacity:1;stroke-width:1" d="M0.5,3.751l4.083-3.25c0,0,11.166,0.083,12.083,0.083s-2.417,2.917-1.5,2.917     s11.667,0,12.584,0c1.166,1.708-0.168,3.167-0.834,3.667s0.875,1.917-1,4.417c-0.75,0.25,0.75,1.875-1.333,3.333     c-1.167,0.583,0.583,1.542-1.25,2.833c-1.167,0-20.833,0.083-20.833,0.083l-2-1.333V3.751z" stroke="#000000"/> 		<path id="_48754C14-0DF7-451B-A915-1C9CAED3EFDBframe2" oryx:anchors="top left" style="opacity:1;fill:none;stroke-width:2" d="M 13.5 7 L 27 7" stroke="#000000"/> 		<path id="_48754C14-0DF7-451B-A915-1C9CAED3EFDBframe3" oryx:anchors="top left" style="opacity:1;fill:none;stroke-width:2" d="M 13.5 11 L 26 11" stroke="#000000"/> 		<path id="_48754C14-0DF7-451B-A915-1C9CAED3EFDBframe4" oryx:anchors="top left" style="opacity:1;fill:none;stroke-width:1.5" d="M 14 14.5 L 25 14.5" stroke="#000000"/> 		<path id="_48754C14-0DF7-451B-A915-1C9CAED3EFDBframe5" oryx:anchors="top left" style="opacity:1;fill:none;stroke-width:1.5" d="M 8.2 3.1 L 15 3.1" stroke="#000000"/> 	</g> 	 	<g id="_48754C14-0DF7-451B-A915-1C9CAED3EFDBbusinessRuleTask" transform="scale(0.7,0.7) translate(8,8)" display="none"> 		<rect id="_48754C14-0DF7-451B-A915-1C9CAED3EFDBframe6" oryx:anchors="top left" x="0" y="0" width="22" height="4" style="opacity:1;fill:#B3B1B3;fill-opacity:1;" stroke="#000000"/> 		<rect id="_48754C14-0DF7-451B-A915-1C9CAED3EFDBframe7" oryx:anchors="top left" x="0" y="4" style="opacity:1;fill:none;" width="22" height="12" stroke="#000000"/> 		<path id="_48754C14-0DF7-451B-A915-1C9CAED3EFDBframe8" oryx:anchors="top left" style="opacity:1;fill:none;" d="M 0 10 L 22 10" stroke="#000000"/> 		<path id="_48754C14-0DF7-451B-A915-1C9CAED3EFDBframe9" oryx:anchors="top left" style="opacity:1; fill:none;" d="M 7 4 L 7 16" stroke="#000000"/> 	</g> 	 	<g id="_48754C14-0DF7-451B-A915-1C9CAED3EFDBscriptTask" transform="scale(0.7,0.7) translate(8,8)" display="none"> 		<path oryx:anchors="top left" id="_48754C14-0DF7-451B-A915-1C9CAED3EFDBframe10" style="opacity:1;fill:none;" stroke="#000000" d="M6.402,0.5h14.5c0,0-5.833,2.833-5.833,5.583s4.417,6,4.417,9.167    s-4.167,5.083-4.167,5.083H0.235c0,0,5-2.667,5-5s-4.583-6.75-4.583-9.25S6.402,0.5,6.402,0.5z"/> 		<path oryx:anchors="top left" id="_48754C14-0DF7-451B-A915-1C9CAED3EFDBframe11" style="opacity:1;fill:none;stroke-width:1.5" d="M 3.5 4.5 L 13.5 4.5" stroke="#000000"/> 		<path oryx:anchors="top left" id="_48754C14-0DF7-451B-A915-1C9CAED3EFDBframe12" style="opacity:1;fill:none;stroke-width:1.5" d="M 3.8 8.5 L 13.8 8.5" stroke="#000000"/> 		<path oryx:anchors="top left" id="_48754C14-0DF7-451B-A915-1C9CAED3EFDBframe13" style="opacity:1;fill:none;stroke-width:1.5" d="M 6.3 12.5 L 16.3 12.5" stroke="#000000"/> 		<path oryx:anchors="top left" id="_48754C14-0DF7-451B-A915-1C9CAED3EFDBframe14" style="opacity:1;fill:none;stroke-width:1.5" d="M 6.5 16.5 L 16.5 16.5" stroke="#000000"/> 	</g> 	 	<g id="_48754C14-0DF7-451B-A915-1C9CAED3EFDBuserTask" transform="scale(0.7,0.7) translate(8,8)" display="inherit"> 		<path id="_48754C14-0DF7-451B-A915-1C9CAED3EFDBframe15" oryx:anchors="top left" style="opacity:1;fill:#F4F6F7" stroke="#000000" d="M0.585,24.167h24.083v-7.833c0,0-2.333-3.917-7.083-5.167h-9.25    c-4.417,1.333-7.833,5.75-7.833,5.75L0.585,24.167z"/> 		<path id="_48754C14-0DF7-451B-A915-1C9CAED3EFDBframe16" oryx:anchors="top left" style="opacity:1;fill:none" d="M 6 20 L 6 24" stroke="#000000"/> 		<path id="_48754C14-0DF7-451B-A915-1C9CAED3EFDBframe17" oryx:anchors="top left" style="opacity:1;fill:none" d="M 20 20 L 20 24" stroke="#000000"/> 		<circle id="_48754C14-0DF7-451B-A915-1C9CAED3EFDBframe18" oryx:anchors="top left" fill="black" cx="13.002" cy="5.916" r="5.417" stroke="#000000"/> 		<path id="_48754C14-0DF7-451B-A915-1C9CAED3EFDBframe19" oryx:anchors="top left" style="opacity:1;fill:#F0EFF0;" stroke="#000000" d="M8.043,7.083c0,0,2.814-2.426,5.376-1.807s4.624-0.693,4.624-0.693    c0.25,1.688,0.042,3.75-1.458,5.584c0,0,1.083,0.75,1.083,1.5s0.125,1.875-1,3s-5.5,1.25-6.75,0S8.668,12.834,8.668,12    s0.583-1.25,1.25-1.917C8.835,9.5,7.419,7.708,8.043,7.083z"/> 	</g> 	 	<g id="_48754C14-0DF7-451B-A915-1C9CAED3EFDBserviceTask" transform="scale(0.7,0.7) translate(8,8)" display="none"> 		<polygon oryx:anchors="top left" id="_48754C14-0DF7-451B-A915-1C9CAED3EFDBframe20" style="opacity:1;fill:#ffffff" stroke="#000000" points="15.392,5.064 17.954,2.502 20.347,4.895 17.786,7.455     18.729,9.732 22.353,9.732 22.353,13.115 18.731,13.115 17.788,15.392 20.351,17.955 17.958,20.347 15.397,17.786 13.12,18.729     13.12,22.353 9.737,22.353 9.737,18.731 7.46,17.788 4.897,20.35 2.506,17.958 5.066,15.397 4.124,13.12 0.5,13.12 0.5,9.737     4.121,9.737 5.065,7.461 2.503,4.898 4.895,2.506 7.455,5.066 9.732,4.125 9.732,0.5 13.116,0.5 13.116,4.121 "/> 		<circle oryx:anchors="top left" id="_48754C14-0DF7-451B-A915-1C9CAED3EFDBframe21" style="opacity:1;fill:none" stroke="#000000" cx="11.427" cy="11.426" r="3.714"/> 		<polygon oryx:anchors="top left" id="_48754C14-0DF7-451B-A915-1C9CAED3EFDBframe22" style="opacity:1;fill:#ffffff" stroke="#000000" points="21.392,11.064 23.954,8.502 26.347,10.895 23.786,13.455     24.729,15.732 28.353,15.732 28.353,19.115 24.731,19.115 23.788,21.392 26.351,23.955 23.958,26.347 21.397,23.786 19.12,24.729     19.12,28.353 15.737,28.353 15.737,24.731 13.46,23.788 10.897,26.35 8.506,23.958 11.066,21.397 10.124,19.12 6.5,19.12     6.5,15.737 10.121,15.737 11.065,13.461 8.503,10.898 10.895,8.506 13.455,11.066 15.732,10.125 15.732,6.5 19.116,6.5     19.116,10.121 "/> 		<circle oryx:anchors="top left" id="_48754C14-0DF7-451B-A915-1C9CAED3EFDBframe23" style="opacity:1;fill:none;" stroke="#000000" cx="17.427" cy="17.426" r="3.714"/> 	</g> 	 	<g id="_48754C14-0DF7-451B-A915-1C9CAED3EFDBsendTask" display="none"> 		<path id="_48754C14-0DF7-451B-A915-1C9CAED3EFDBstframe24" oryx:anchors="left top" stroke="#FFFFFF" fill="black" stroke-width="1" d="M8,11 L8,21 L24,21 L24,11 L16,17z"/> 		<path id="_48754C14-0DF7-451B-A915-1C9CAED3EFDBstframe25" oryx:anchors="left top" stroke="#FFFFFF" fill="black" stroke-width="1" d="M7,10 L16,17 L25 10z"/> 	</g> 	 	<g id="_48754C14-0DF7-451B-A915-1C9CAED3EFDBreceiveTask" display="none"> 		<path id="_48754C14-0DF7-451B-A915-1C9CAED3EFDBframe26" oryx:anchors="left top" stroke="#000000" fill="none" stroke-width="1" d="M8,11 L8,21 L24,21 L24,11z M8,11 L16,17 L24,11"/> 	</g> 	 	<g id="_48754C14-0DF7-451B-A915-1C9CAED3EFDBnone" display="inherit"/>  	<g id="_48754C14-0DF7-451B-A915-1C9CAED3EFDBsequential" display="none">         <path oryx:anchors="bottom" fill="none" stroke="#000000" stroke-width="2" d="M46,76h10M46,72h10 M46,68h10" id="_48754C14-0DF7-451B-A915-1C9CAED3EFDB__48754C14-0DF7-451B-A915-1C9CAED3EFDB_20"/>     </g>   </g></g><g class="children" style="overflow:hidden"/><g class="edge"/></g><g class="controls"><g class="dockers"/><g class="magnets" transform="translate(505, 140)"><g pointer-events="all" display="none" transform="translate(-7, 12)"><circle cx="8" cy="8" r="4" stroke="none" fill="red" fill-opacity="0.3"/></g><g pointer-events="all" display="none" transform="translate(-7, 32)"><circle cx="8" cy="8" r="4" stroke="none" fill="red" fill-opacity="0.3"/></g><g pointer-events="all" display="none" transform="translate(-7, 52)"><circle cx="8" cy="8" r="4" stroke="none" fill="red" fill-opacity="0.3"/></g><g pointer-events="all" display="none" transform="translate(17, 71)"><circle cx="8" cy="8" r="4" stroke="none" fill="red" fill-opacity="0.3"/></g><g pointer-events="all" display="none" transform="translate(42, 71)"><circle cx="8" cy="8" r="4" stroke="none" fill="red" fill-opacity="0.3"/></g><g pointer-events="all" display="none" transform="translate(67, 71)"><circle cx="8" cy="8" r="4" stroke="none" fill="red" fill-opacity="0.3"/></g><g pointer-events="all" display="none" transform="translate(91, 12)"><circle cx="8" cy="8" r="4" stroke="none" fill="red" fill-opacity="0.3"/></g><g pointer-events="all" display="none" transform="translate(91, 32)"><circle cx="8" cy="8" r="4" stroke="none" fill="red" fill-opacity="0.3"/></g><g pointer-events="all" display="none" transform="translate(91, 52)"><circle cx="8" cy="8" r="4" stroke="none" fill="red" fill-opacity="0.3"/></g><g pointer-events="all" display="none" transform="translate(17, -7)"><circle cx="8" cy="8" r="4" stroke="none" fill="red" fill-opacity="0.3"/></g><g pointer-events="all" display="none" transform="translate(42, -7)"><circle cx="8" cy="8" r="4" stroke="none" fill="red" fill-opacity="0.3"/></g><g pointer-events="all" display="none" transform="translate(67, -7)"><circle cx="8" cy="8" r="4" stroke="none" fill="red" fill-opacity="0.3"/></g><g pointer-events="all" display="none" transform="translate(42, 32)"><circle cx="8" cy="8" r="4" stroke="none" fill="red" fill-opacity="0.3"/></g></g></g></g><g id="_E4460383-41C7-4881-A006-7B40D83A0130" bpmn2nodeid="_D9BACCF3-A340-445A-BAEA-0022B24CD426"><g class="stencils" transform="translate(650, 166)"><g class="me"><g pointer-events="fill" id="_E4460383-41C7-4881-A006-7B40D83A0130">      <defs id="_E4460383-41C7-4881-A006-7B40D83A0130__E4460383-41C7-4881-A006-7B40D83A0130_5"> 		<radialGradient id="_E4460383-41C7-4881-A006-7B40D83A0130background" cx="10%" cy="10%" r="100%" fx="10%" fy="10%"> 			<stop offset="0%" stop-color="#ffffff" stop-opacity="1" id="_E4460383-41C7-4881-A006-7B40D83A0130__E4460383-41C7-4881-A006-7B40D83A0130_6"/> 			<stop id="_E4460383-41C7-4881-A006-7B40D83A0130fill_el" offset="100%" stop-color="#ff6347" stop-opacity="1"/> 		</radialGradient> 	</defs> 	     <circle id="_E4460383-41C7-4881-A006-7B40D83A0130bg_frame" cx="14" cy="14" r="14" stroke="#000000" fill="url(#_E4460383-41C7-4881-A006-7B40D83A0130background) white" stroke-width="3"/> 	<text font-size="11" id="_E4460383-41C7-4881-A006-7B40D83A0130text_name" x="14" y="30" oryx:align="top center" stroke="black" stroke-width="0pt" letter-spacing="-0.01px" fill="#000000" text-anchor="middle" transform="rotate(0 14 30)" visibility="inherit" oryx:fontSize="11"/>   </g></g><g class="children" style="overflow:hidden"/><g class="edge"/></g><g class="controls"><g class="dockers"/><g class="magnets" transform="translate(650, 166)"><g pointer-events="all" display="none" transform="translate(6, 6)"><circle cx="8" cy="8" r="4" stroke="none" fill="red" fill-opacity="0.3"/></g></g></g></g></g><g class="edge"><g id="_F3D391EB-F227-4222-9FD0-D02B51F62E1E" bpmn2nodeid="_2C988C74-41CF-4D19-B0C0-EEBB0BD4A431"><g class="stencils"><g class="me"><g pointer-events="painted" bpmn2nodeid="_A068B0B6-E21F-4D10-97B3-ED3B358F213F"><path id="_F3D391EB-F227-4222-9FD0-D02B51F62E1E_1" d="M150.6083435402103 179.29052983908136L194.1572814597897 177.31103266091864 " stroke="#000000" fill="none" stroke-width="2" stroke-linecap="round" stroke-linejoin="round" marker-start="url(#_F3D391EB-F227-4222-9FD0-D02B51F62E1Estart)" marker-end="url(#_F3D391EB-F227-4222-9FD0-D02B51F62E1Eend)"/></g><text id="_F3D391EB-F227-4222-9FD0-D02B51F62E1Etext_name" font-size="12" x="164.6083435402103" y="165.29052983908136" oryx:edgePosition="startTop" stroke-width="0pt" letter-spacing="-0.01px" fill="#000000" text-anchor="start" transform="rotate(357.3974377975002 150.6083435402103 179.29052983908136)" visibility="inherit" oryx:fontSize="12"/></g><g class="children" style="overflow:hidden"/><g class="edge"/></g><g class="controls"><g class="dockers"/><g class="magnets"/></g></g><g id="_DF785D9A-64A8-4A22-8941-BC2BF9D9E093" bpmn2nodeid="_E6D89D9F-73CF-4681-BB1A-A346FFC57DD9"><g class="stencils"><g class="me"><g pointer-events="painted" bpmn2nodeid="_F6FD5162-709E-4564-BE61-656C32F995F9"><path id="_DF785D9A-64A8-4A22-8941-BC2BF9D9E093_1" d="M295.62844742914535 176.53419537664078L359.37155257085465 178.46580462335922 " stroke="#000000" fill="none" stroke-width="2" stroke-linecap="round" stroke-linejoin="round" marker-start="url(#_DF785D9A-64A8-4A22-8941-BC2BF9D9E093start)" marker-end="url(#_DF785D9A-64A8-4A22-8941-BC2BF9D9E093end)"/></g><text id="_DF785D9A-64A8-4A22-8941-BC2BF9D9E093text_name" font-size="12" x="309.62844742914535" y="162.53419537664078" oryx:edgePosition="startTop" stroke-width="0pt" letter-spacing="-0.01px" fill="#000000" text-anchor="start" transform="rotate(1.7357045889283427 295.62844742914535 176.53419537664078)" visibility="inherit" oryx:fontSize="12"/></g><g class="children" style="overflow:hidden"/><g class="edge"/></g><g class="controls"><g class="dockers"/><g class="magnets"/></g></g><g id="_D560E957-2741-438B-8AB1-7D1F1504D91A" bpmn2nodeid="_282F0AEA-06B9-405E-A43E-FD739E32BA7A"><g class="stencils"><g class="me"><g pointer-events="painted" bpmn2nodeid="_66A8F3E0-70F1-4E53-97EA-A4967A3DF522"><path id="_D560E957-2741-438B-8AB1-7D1F1504D91A_1" d="M460.84375 180L504.15625 180 " stroke="#000000" fill="none" stroke-width="2" stroke-linecap="round" stroke-linejoin="round" marker-start="url(#_D560E957-2741-438B-8AB1-7D1F1504D91Astart)" marker-end="url(#_D560E957-2741-438B-8AB1-7D1F1504D91Aend)"/></g><text id="_D560E957-2741-438B-8AB1-7D1F1504D91Atext_name" font-size="12" x="474.84375" y="166" oryx:edgePosition="startTop" stroke-width="0pt" letter-spacing="-0.01px" fill="#000000" text-anchor="start" transform="rotate(360 460.84375 180)" visibility="inherit" oryx:fontSize="12"/></g><g class="children" style="overflow:hidden"/><g class="edge"/></g><g class="controls"><g class="dockers"/><g class="magnets"/></g></g><g id="_9FFD0844-50F5-4CF5-92B1-E27DD62298F2" bpmn2nodeid="_9F9AC8C0-D0D8-4652-B2C7-8C0A5C545C80"><g class="stencils"><g class="me"><g pointer-events="painted" bpmn2nodeid="_89D365E4-4326-42C4-850E-E892F248EAEF"><path id="_9FFD0844-50F5-4CF5-92B1-E27DD62298F2_1" d="M605.390625 180L649.375 180 " stroke="#000000" fill="none" stroke-width="2" stroke-linecap="round" stroke-linejoin="round" marker-start="url(#_9FFD0844-50F5-4CF5-92B1-E27DD62298F2start)" marker-end="url(#_9FFD0844-50F5-4CF5-92B1-E27DD62298F2end)"/></g><text id="_9FFD0844-50F5-4CF5-92B1-E27DD62298F2text_name" font-size="12" x="619.390625" y="166" oryx:edgePosition="startTop" stroke-width="0pt" letter-spacing="-0.01px" fill="#000000" text-anchor="start" transform="rotate(360 605.390625 180)" visibility="inherit" oryx:fontSize="12"/></g><g class="children" style="overflow:hidden"/><g class="edge"/></g><g class="controls"><g class="dockers"/><g class="magnets"/></g></g></g><text id="_A0B3FCBE-18DC-4A84-B75E-921BFB2800BE" style="stroke-width:1;fill:rgb(177,194,214);font-family:arial;font-weight:bold" font-size="12" onclick="ORYX.Plugins.CanvasTitle.openTextualAnalysis()" onmouseover="ORYX.Plugins.CanvasTitle.addToolTip('_A0B3FCBE-18DC-4A84-B75E-921BFB2800BE')" transform="translate(10, 20)">SUMA v.1.0 (src.main.resources.SUMA)</text></g></g></svg>